<svg width="55" height="55" viewBox="0 0 55 55" fill="none" xmlns="http://www.w3.org/2000/svg">
<circle cx="27.5" cy="27.5" r="27.5" fill="#DC3546"/>
<path d="M28.7148 35.1934C28.6035 34.9707 28.418 34.9336 28.3438 34.9336C28.2324 34.9336 28.0469 34.9707 27.9355 35.1562L27.6758 35.75C27.416 36.1953 26.748 36.1582 26.5625 35.6758L25.9688 33.7832L25.5605 34.9707C25.3379 35.6387 24.7441 36.0469 24.0391 36.0469H23.5938C23.2598 36.0469 23 35.7871 23 35.4531C23 35.1562 23.2598 34.8594 23.5938 34.8594H24.0391C24.2246 34.8594 24.373 34.748 24.4473 34.5996L25.1152 32.5586C25.2266 32.1875 25.5605 31.9648 25.9688 31.9648C26.3398 31.9648 26.6738 32.1875 26.7852 32.5586L27.3047 34.1172C28.0469 33.5234 29.3086 33.7461 29.7539 34.6367C29.8281 34.7852 29.9766 34.8594 30.125 34.8594V31.8164L34.875 27.1035V25.3594H29.8281C29.3086 25.3594 28.9375 24.9883 28.9375 24.4688V19.4219H21.5156C20.9961 19.4219 20.625 19.8301 20.625 20.3125V37.5312C20.625 38.0508 20.9961 38.4219 21.5156 38.4219H33.9844C34.4668 38.4219 34.875 38.0508 34.875 37.5312V36.0469H30.125C29.4941 36.0469 28.9746 35.7129 28.7148 35.1934ZM34.875 23.9492C34.875 23.7266 34.7637 23.5039 34.6152 23.3184L30.9785 19.6816C30.793 19.5332 30.5703 19.4219 30.3477 19.4219H30.125V24.1719H34.875V23.9492ZM31.3125 32.2988V34.8594H33.8359L39.8477 28.8477L37.3242 26.3242L31.3125 32.2988ZM41.7031 25.6562L40.5156 24.4688C40.1445 24.0977 39.5508 24.0977 39.1797 24.4688L38.1777 25.4707L40.7012 27.9941L41.7031 26.9922C42.0742 26.6211 42.0742 26.0273 41.7031 25.6562Z" fill="white"/>
</svg>
