<svg width="55" height="55" viewBox="0 0 55 55" fill="none" xmlns="http://www.w3.org/2000/svg">
<circle cx="27.5" cy="27.5" r="27.5" fill="#50BB25"/>
<path d="M35.7324 24.1719H21.5938C21.2598 24.1719 21 23.9121 21 23.5781C21 23.2812 21.2598 22.9844 21.5938 22.9844H35.8438C36.1406 22.9844 36.4375 22.7246 36.4375 22.3906C36.4375 21.4258 35.6211 20.6094 34.6562 20.6094H21C19.6641 20.6094 18.625 21.6855 18.625 22.9844V34.8594C18.625 36.1953 19.6641 37.2344 21 37.2344H35.7324C36.7715 37.2344 37.625 36.4551 37.625 35.4531V25.9531C37.625 24.9883 36.7715 24.1719 35.7324 24.1719ZM34.0625 31.8906C33.3945 31.8906 32.875 31.3711 32.875 30.7031C32.875 30.0723 33.3945 29.5156 34.0625 29.5156C34.6934 29.5156 35.25 30.0723 35.25 30.7031C35.25 31.3711 34.6934 31.8906 34.0625 31.8906Z" fill="white"/>
</svg>
