<svg width="55" height="55" viewBox="0 0 55 55" fill="none" xmlns="http://www.w3.org/2000/svg">
<circle cx="27.5" cy="27.5" r="27.5" fill="#6F4FF2"/>
<path d="M34.7324 24.1719H20.5938C20.2598 24.1719 20 23.9121 20 23.5781C20 23.2812 20.2598 22.9844 20.5938 22.9844H34.8438C35.1406 22.9844 35.4375 22.7246 35.4375 22.3906C35.4375 21.4258 34.6211 20.6094 33.6562 20.6094H20C18.6641 20.6094 17.625 21.6855 17.625 22.9844V34.8594C17.625 36.1953 18.6641 37.2344 20 37.2344H34.7324C35.7715 37.2344 36.625 36.4551 36.625 35.4531V25.9531C36.625 24.9883 35.7715 24.1719 34.7324 24.1719ZM33.0625 31.8906C32.3945 31.8906 31.875 31.3711 31.875 30.7031C31.875 30.0723 32.3945 29.5156 33.0625 29.5156C33.6934 29.5156 34.25 30.0723 34.25 30.7031C34.25 31.3711 33.6934 31.8906 33.0625 31.8906Z" fill="white"/>
</svg>
